v 12.38 0 -0
vt -3.38473 0
vn 0 -1 -0
v 0 0 -0
vt 0 0
v 0 0 -36.97
vt 0 9.359
v 12.38 0 -36.97
vt -3.38473 9.359
f 1/1/1 2/2/1 3/3/1 4/4/1 

vn 0 0 1
vt 3.38473 0
v 12.38 24.78 -0
vt 3.38473 6.27309
v 0 24.78 -0
vt 0 6.27309
f 2/2/2 1/5/2 5/6/2 6/7/2 

vn 1 0 -0
vt 10.1077 0
v 12.38 24.78 -36.97
vt 10.1077 6.27309
f 1/2/3 4/8/3 7/9/3 5/7/3 

vn 0 0 -1
v 0 24.78 -36.97
vt -3.38473 6.27309
f 4/1/4 3/2/4 8/7/4 7/10/4 

vt -10.1077 0
vn -1 0 -0
vt -10.1077 6.27309
f 3/11/5 2/2/5 6/7/5 8/12/5 

vn 0 1 -0
vt 3.38473 9.359
f 6/2/6 5/5/6 7/13/6 8/3/6 

